<svg width="19" height="17" viewBox="0 0 19 17" fill="none" xmlns="http://www.w3.org/2000/svg">
<path d="M7.75 2.5H17.5M7.75 2.5C7.75 2.89782 7.59196 3.27936 7.31066 3.56066C7.02936 3.84196 6.64782 4 6.25 4C5.85218 4 5.47064 3.84196 5.18934 3.56066C4.90804 3.27936 4.75 2.89782 4.75 2.5M7.75 2.5C7.75 2.10218 7.59196 1.72064 7.31066 1.43934C7.02936 1.15804 6.64782 1 6.25 1C5.85218 1 5.47064 1.15804 5.18934 1.43934C4.90804 1.72064 4.75 2.10218 4.75 2.5M1 2.5H4.75M7.75 14.5H17.5M7.75 14.5C7.75 14.8978 7.59196 15.2794 7.31066 15.5607C7.02936 15.842 6.64782 16 6.25 16C5.85218 16 5.47064 15.842 5.18934 15.5607C4.90804 15.2794 4.75 14.8978 4.75 14.5M7.75 14.5C7.75 14.1022 7.59196 13.7206 7.31066 13.4393C7.02936 13.158 6.64782 13 6.25 13C5.85218 13 5.47064 13.158 5.18934 13.4393C4.90804 13.7206 4.75 14.1022 4.75 14.5M1 14.5H4.75M13.75 8.5H17.5M13.75 8.5C13.75 8.89782 13.592 9.27936 13.3107 9.56066C13.0294 9.84196 12.6478 10 12.25 10C11.8522 10 11.4706 9.84196 11.1893 9.56066C10.908 9.27936 10.75 8.89782 10.75 8.5M13.75 8.5C13.75 8.10218 13.592 7.72064 13.3107 7.43934C13.0294 7.15804 12.6478 7 12.25 7C11.8522 7 11.4706 7.15804 11.1893 7.43934C10.908 7.72064 10.75 8.10218 10.75 8.5M1 8.5H10.75" stroke="white" stroke-width="1.5" stroke-linecap="round" stroke-linejoin="round"/>
</svg>
